<svg xmlns="http://www.w3.org/2000/svg" xmlns:xlink="http://www.w3.org/1999/xlink" version="1.1" x="0px" y="0px" viewBox="0 0 100 125" enable-background="new 0 0 100 100" xml:space="preserve"><g fill="#e6e6e6"><path d="M91.851,51.471c2.568-4.811,4.045-10.289,4.045-16.113C95.896,16.413,80.481,1,61.536,1   C45.979,1,32.817,11.397,28.603,25.605C13.222,26.562,1,39.373,1,54.992c0,16.238,13.211,29.449,29.45,29.449   c4.866,0,9.455-1.192,13.502-3.292c4.227,10.546,14.547,18.018,26.584,18.018c15.787,0,28.632-12.845,28.632-28.632   C99.167,63.213,96.389,56.538,91.851,51.471z M61.536,7.544c15.336,0,27.815,12.477,27.815,27.813   c0,4.155-0.928,8.093-2.568,11.637c-0.841-0.582-1.71-1.124-2.612-1.615C82.268,31.425,70.278,20.633,55.81,20.633   c-6.582,0-12.648,2.239-17.49,5.987c-0.958-0.267-1.936-0.486-2.931-0.655C39.252,15.243,49.5,7.544,61.536,7.544z M33.722,49.265   c0-12.179,9.908-22.087,22.087-22.087c12.181,0,22.088,9.909,22.088,22.087c0,12.182-9.907,22.088-22.088,22.088   C43.63,71.353,33.722,61.446,33.722,49.265z M30.449,77.897c-12.63,0-22.905-10.275-22.905-22.905   c0-12.631,10.274-22.906,22.905-22.906c0.801,0,1.589,0.054,2.369,0.136c-3.542,4.765-5.641,10.663-5.641,17.042   c0,10.855,6.072,20.318,14.998,25.173c0.009,0.066,0.016,0.134,0.025,0.199C38.763,76.703,34.745,77.897,30.449,77.897z    M70.535,92.623c-9.791,0-18.105-6.406-20.992-15.245c0.055-0.047,0.108-0.095,0.162-0.143c1.969,0.43,4.01,0.662,6.104,0.662   c14.458,0,26.44-10.775,28.357-24.716c5.142,4.048,8.456,10.316,8.456,17.354C92.623,82.715,82.715,92.623,70.535,92.623z"/></g></svg>